<svg width="565" height="117" viewBox="0 0 565 117" fill="none" xmlns="http://www.w3.org/2000/svg">
<rect width="565" height="117" rx="20" fill="#2E3337"/>
<path d="M60.9844 23.2812C62.2344 23.2812 62.8906 23.8906 62.9531 25.1094L62.3906 45.5469C62.3906 46.3594 62.0469 46.7656 61.3594 46.7656L53.4844 46.9531C52.8906 46.9531 52.5625 46.5938 52.5 45.875L51.5156 33.8281C47.7031 32.8906 44.1875 32.4219 40.9688 32.4219C37.75 32.4219 35.0312 32.9062 32.8125 33.875C30.5938 34.8125 28.7656 36.3438 27.3281 38.4688C24.5469 42.5938 23.1562 49.4844 23.1562 59.1406C23.1562 73.7344 26.6875 82.4688 33.75 85.3438C36.0625 86.2812 38.875 86.75 42.1875 86.75C45.5 86.75 49 86.1562 52.6875 84.9688L52.4531 78.6875C52.5156 78.125 52.8906 77.7812 53.5781 77.6562L61.3594 76.3438C61.8906 76.3438 62.2188 76.7031 62.3438 77.4219L64.2188 95.7031C64.2188 96.2031 63.8594 96.4844 63.1406 96.5469L55.0781 97.25C53.8281 97.25 53.1719 96.6406 53.1094 95.4219L53.0156 93.4531C48.6719 95.7656 44.0781 96.9219 39.2344 96.9219C34.4219 96.9219 30.3594 96.0938 27.0469 94.4375C23.7656 92.7812 21.0156 90.3438 18.7969 87.125C14.3281 80.5938 12.0938 71.0938 12.0938 58.625C12.0938 46.25 14.5938 37.0625 19.5938 31.0625C24.1562 25.5625 30.6719 22.8125 39.1406 22.8125C44.4531 22.8125 48.9219 23.4063 52.5469 24.5938L60.9844 23.2812ZM129.656 96.9219C129.531 97.6406 129.203 98 128.672 98L119.859 97.8125C119.172 97.8125 118.828 97.4062 118.828 96.5938L118.734 93.7344L76.875 94.9062C76.1562 94.9062 75.7812 94.5312 75.75 93.7812L76.0312 85.1562C76.0312 84.6875 76.2812 84.3906 76.7812 84.2656L82.6406 85.0625L82.2656 34.0156L76.3594 34.5312C75.7969 34.5312 75.5156 34.1875 75.5156 33.5L76.0312 24.9688C76.0938 24.375 76.4688 24.0469 77.1562 23.9844L123.984 22.2031C124.922 22.2656 125.391 22.6875 125.391 23.4688L124.453 40.5781C124.453 41.2969 124.203 41.6562 123.703 41.6562L115.828 41.375C115.391 41.3438 115.125 41.2344 115.031 41.0469C114.938 40.8594 114.875 40.5625 114.844 40.1562L114.562 32.0938L92.3906 33.2656L92.7188 55.1094L115.734 53.6562C116.516 53.6562 116.938 54.0156 117 54.7344L117.328 62.6094C117.266 63.3281 116.938 63.6875 116.344 63.6875L92.8125 64.0156L93.1406 85.4375L118.453 84.5938L118.266 78.4531C118.328 77.2969 118.984 76.6875 120.234 76.625L127.828 76.8594C128.547 76.9219 128.906 77.2031 128.906 77.7031L129.656 96.9219ZM179.484 97.0156C178.953 97.0156 178.625 96.6562 178.5 95.9375L178.266 93.6875L138.75 95.3281C138.219 95.3281 137.938 94.9531 137.906 94.2031L138.656 86.0469C138.719 85.5469 138.969 85.25 139.406 85.1562L145.875 85.4375L146.297 33.875L139.922 34.4844C139.578 34.4844 139.359 34.4062 139.266 34.25C139.172 34.0938 139.109 33.8281 139.078 33.4531L138.656 25.0156C138.688 24.2969 139.062 23.9375 139.781 23.9375L162.516 23.5625C163.109 23.625 163.453 23.9844 163.547 24.6406L164.438 32.8906C164.438 33.3281 164.328 33.6094 164.109 33.7344C163.922 33.8281 163.672 33.8906 163.359 33.9219L156.516 33.6875L156.375 85.2031L177.281 84.125L176.438 75.9219C176.438 75.3281 176.797 75 177.516 74.9375L185.109 74.2344C186.359 74.2344 187.016 74.8438 187.078 76.0625L187.922 94.6719C187.859 95.3906 187.516 95.7969 186.891 95.8906L179.484 97.0156ZM307.266 67.0625C306.547 66.9375 306.188 66.6094 306.188 66.0781L306.375 57.7344C306.375 57.1094 306.781 56.7656 307.594 56.7031L330.422 55.2031C331.578 55.2656 332.188 55.9219 332.25 57.1719L332.016 65.2344C332.016 65.5781 331.922 65.8438 331.734 66.0312C331.547 66.2188 331.359 66.3125 331.172 66.3125L328.734 66.4062L329.578 94.2969C329.516 95.1719 329.109 95.6094 328.359 95.6094C326.609 95.6094 323.656 94.5312 319.5 92.375C315.281 94.8125 310.719 96.0312 305.812 96.0312C300.938 96.0312 296.781 95.3125 293.344 93.875C289.906 92.4062 287.031 90.125 284.719 87.0312C279.969 80.7812 277.594 71.0938 277.594 57.9688C277.594 39.6562 282.75 28.5625 293.062 24.6875C296.344 23.4375 300.016 22.8125 304.078 22.8125C309.891 22.8125 314.656 24.3281 318.375 27.3594L319.312 21.6875C319.406 20.9062 319.75 20.5 320.344 20.4688L327.703 19.8125C328.453 19.8125 328.828 20.1719 328.828 20.8906L329.344 38.0469C329.344 38.6406 329.031 38.9844 328.406 39.0781L319.5 40.2969C317.594 37.7656 315.906 36.0469 314.438 35.1406C311.812 33.5156 309.109 32.7031 306.328 32.7031C303.547 32.7031 301 33.0938 298.688 33.875C296.406 34.6562 294.453 36.0156 292.828 37.9531C289.422 42.0156 287.719 48.75 287.719 58.1562C287.719 73.3125 291.531 82.1719 299.156 84.7344C301.562 85.5469 304.5 85.9531 307.969 85.9531C311.438 85.9531 315.078 85.2656 318.891 83.8906L318.656 66.7344L307.266 67.0625ZM366.281 94.3906C366.219 95.0156 365.844 95.3281 365.156 95.3281L341.531 95.1875C341 95.1875 340.719 94.8125 340.688 94.0625L341.719 84.8281C341.781 84.3281 342.031 84.0312 342.469 83.9375L348.422 84.3594V33.7344C346.109 33.9219 344.484 34.0156 343.547 34.0156C342.609 34.0156 342.016 33.9062 341.766 33.6875C341.547 33.4375 341.406 33.1094 341.344 32.7031L340.406 25.0156C340.469 24.1719 340.844 23.6875 341.531 23.5625C350.906 22.5937 360.172 22.1094 369.328 22.1094C382.109 22.1094 390.062 26.1875 393.188 34.3438C394.281 37.125 394.828 40.2344 394.828 43.6719C394.828 47.0781 394.422 49.9375 393.609 52.25C392.828 54.5312 391.719 56.5 390.281 58.1562C387.406 61.4688 383.484 63.6094 378.516 64.5781L390.797 83.9844L399.094 83.2812C400.125 83.3438 400.641 83.875 400.641 84.875L400.688 92.2344C400.688 93.8906 400.109 94.75 398.953 94.8125L385.641 95.1406C385.016 95.1406 384.531 94.8281 384.188 94.2031L368.344 65.0938C364.781 65.0312 361.578 64.8594 358.734 64.5781L358.875 84.6875H365.203C365.703 84.6875 365.953 84.9844 365.953 85.5781L366.281 94.3906ZM371.109 31.9531C368.609 31.9531 364.391 32.25 358.453 32.8438L358.641 56.1875C361.359 56.3438 364.188 56.4219 367.125 56.4219C370.062 56.4219 372.484 56.2188 374.391 55.8125C376.328 55.375 378 54.6875 379.406 53.75C382.438 51.7188 383.953 48.5781 383.953 44.3281C383.953 40.0469 382.875 36.9219 380.719 34.9531C378.594 32.9531 375.391 31.9531 371.109 31.9531ZM403.781 94.9062C403.094 94.8438 402.75 94.3438 402.75 93.4062V85.5781C402.75 85.0781 402.844 84.7344 403.031 84.5469C403.25 84.3594 403.625 84.25 404.156 84.2188L408.469 84.4062L427.031 24.2188C427.219 23.625 427.594 23.2969 428.156 23.2344L438.797 22.8594C439.359 22.8906 439.75 23.25 439.969 23.9375L460.219 84.0781L464.484 83.9375C465.359 84 465.797 84.5 465.797 85.4375V92.8438C465.797 93.375 465.688 93.7188 465.469 93.875C465.25 94.0312 464.875 94.1094 464.344 94.1094H442.641C442.078 94.1094 441.75 93.9844 441.656 93.7344C441.562 93.4844 441.516 93.1406 441.516 92.7031L442.453 85.8594C442.516 85.3281 442.641 84.9844 442.828 84.8281C443.016 84.6406 443.359 84.5469 443.859 84.5469L449.203 84.4062L445.172 71.9375L421.969 71.4688L418.172 85.0625L423.844 84.5C424.219 84.5 424.469 84.5781 424.594 84.7344C424.75 84.8906 424.859 85.1719 424.922 85.5781L425.625 92.7031C425.562 93.2344 425.422 93.5938 425.203 93.7812C425.016 93.9688 424.688 94.0781 424.219 94.1094L403.781 94.9062ZM424.172 63.5H442.406L432.562 33.3594L424.172 63.5ZM529.359 94.8594C528.672 94.8594 528.297 94.5469 528.234 93.9219L528.562 86.0469C528.625 85.4531 528.875 85.1562 529.312 85.1562H532.547L529.734 32.3281L514.781 94.5312C514.656 95.1562 514.281 95.4688 513.656 95.4688L503.719 95.6094C503.156 95.6094 502.797 95.2656 502.641 94.5781L487.125 34.4844L485.766 84.875L490.078 84.6875C490.484 84.6875 490.734 84.9844 490.828 85.5781L491.625 93.9219C491.562 94.5469 491.188 94.8594 490.5 94.8594L470.156 95.1875C469.625 95.1875 469.344 94.8125 469.312 94.0625L469.875 85.2969C469.938 84.7969 470.188 84.5 470.625 84.4062L476.812 84.9688L479.578 34.2969L473.766 34.8594C473.141 34.8594 472.812 34.5156 472.781 33.8281L472.359 25.1094C472.422 24.5156 472.797 24.1875 473.484 24.125L492.703 23.0938C493.609 23.0938 494.188 23.5312 494.438 24.4062L509.344 83.8438L524.156 24.8281C524.344 23.9531 524.922 23.5156 525.891 23.5156L544.312 23.6562C544.688 23.7187 544.953 23.8125 545.109 23.9375C545.297 24.0312 545.406 24.2656 545.438 24.6406L545.953 33.8281C545.891 34.2031 545.812 34.4688 545.719 34.625C545.656 34.7812 545.453 34.8594 545.109 34.8594L539.344 34.8125L542.531 85.0156L548.766 84.875C549.203 84.9688 549.453 85.2656 549.516 85.7656L548.672 93.5938C548.547 94.3438 548.266 94.7188 547.828 94.7188L529.359 94.8594Z" fill="#FBCB5E"/>
<circle cx="225.214" cy="64.7857" r="27.2143" stroke="#37CE81" stroke-width="10"/>
<circle cx="242.786" cy="47.2143" r="27.2143" stroke="#37CE81" stroke-width="10"/>
</svg>
